<svg width="42" height="42" viewBox="0 0 42 42" fill="none" xmlns="http://www.w3.org/2000/svg">
<path fill-rule="evenodd" clip-rule="evenodd" d="M18.7877 1.11387H2.19697C1.5903 1.11387 1.09849 1.60568 1.09849 2.21236V18.8031C1.09849 19.4098 1.5903 19.9016 2.19698 19.9016H18.7877C19.3944 19.9016 19.8862 19.4098 19.8862 18.8031V2.21236C19.8862 1.60568 19.3944 1.11387 18.7877 1.11387ZM2.19697 0.0153809C0.983619 0.0153809 0 0.999002 0 2.21236V18.8031C0 20.0165 0.983621 21.0001 2.19698 21.0001H18.7877C20.0011 21.0001 20.9847 20.0165 20.9847 18.8031V2.21236C20.9847 0.999 20.0011 0.0153809 18.7877 0.0153809H2.19697Z" fill="#C4C4C4"/>
<path d="M0 23.197C0 21.9836 0.983619 21 2.19697 21H18.7877C20.0011 21 20.9847 21.9836 20.9847 23.197V39.7877C20.9847 41.0011 20.0011 41.9847 18.7877 41.9847H2.19698C0.983621 41.9847 0 41.0011 0 39.7877V23.197Z" fill="#C4C4C4"/>
<path d="M20.9846 2.21236C20.9846 0.999002 21.9682 0.0153809 23.1816 0.0153809H39.7724C40.9857 0.0153809 41.9693 0.999 41.9693 2.21236V18.8031C41.9693 20.0165 40.9857 21.0001 39.7724 21.0001H23.1816C21.9682 21.0001 20.9846 20.0165 20.9846 18.8031V2.21236Z" fill="#C4C4C4"/>
<path fill-rule="evenodd" clip-rule="evenodd" d="M39.7724 22.0985H23.1816C22.5749 22.0985 22.0831 22.5903 22.0831 23.197V39.7877C22.0831 40.3944 22.5749 40.8862 23.1816 40.8862H39.7724C40.379 40.8862 40.8709 40.3944 40.8709 39.7877V23.197C40.8709 22.5903 40.379 22.0985 39.7724 22.0985ZM23.1816 21C21.9682 21 20.9846 21.9836 20.9846 23.197V39.7877C20.9846 41.0011 21.9682 41.9847 23.1816 41.9847H39.7724C40.9857 41.9847 41.9693 41.0011 41.9693 39.7877V23.197C41.9693 21.9836 40.9857 21 39.7724 21H23.1816Z" fill="#C4C4C4"/>
</svg>
