<svg width="34" height="50" viewBox="0 0 34 50" fill="none" xmlns="http://www.w3.org/2000/svg">
<g clip-path="url(#clip0_2_950)">
<path d="M8.66671 49.9999C13.2667 49.9999 17 46.2666 17 41.6666V33.3333H8.66671C4.06671 33.3333 0.333374 37.0666 0.333374 41.6666C0.333374 46.2666 4.06671 49.9999 8.66671 49.9999Z" fill="#0ACF83"/>
<path d="M0.333374 25.0001C0.333374 20.4001 4.06671 16.6667 8.66671 16.6667H17V33.3334H8.66671C4.06671 33.3334 0.333374 29.6001 0.333374 25.0001Z" fill="#A259FF"/>
<path d="M0.333374 8.33333C0.333374 3.73333 4.06671 0 8.66671 0H17V16.6667H8.66671C4.06671 16.6667 0.333374 12.9333 0.333374 8.33333Z" fill="#F24E1E"/>
<path d="M17 0H25.3333C29.9333 0 33.6667 3.73333 33.6667 8.33333C33.6667 12.9333 29.9333 16.6667 25.3333 16.6667H17V0Z" fill="#FF7262"/>
<path d="M33.6667 25.0001C33.6667 29.6001 29.9333 33.3334 25.3333 33.3334C20.7333 33.3334 17 29.6001 17 25.0001C17 20.4001 20.7333 16.6667 25.3333 16.6667C29.9333 16.6667 33.6667 20.4001 33.6667 25.0001Z" fill="#1ABCFE"/>
</g>
<defs>
<clipPath id="clip0_2_950">
<rect width="33.3333" height="50" fill="white" transform="translate(0.333374)"/>
</clipPath>
</defs>
</svg>
