<svg width="24" height="24" viewBox="0 0 24 24" fill="none" xmlns="http://www.w3.org/2000/svg">
<path d="M11.7817 0.47998C5.41932 0.47998 0.261719 5.63758 0.261719 12C0.261719 18.3624 5.41932 23.52 11.7817 23.52C18.1441 23.52 23.3017 18.3624 23.3017 12C23.3017 5.63758 18.1441 0.47998 11.7817 0.47998ZM8.96172 16.7748H6.62892V9.26758H8.96172V16.7748ZM7.78092 8.34598C7.04412 8.34598 6.56772 7.82398 6.56772 7.17838C6.56772 6.51958 7.05852 6.01318 7.81092 6.01318C8.56332 6.01318 9.02412 6.51958 9.03852 7.17838C9.03852 7.82398 8.56332 8.34598 7.78092 8.34598ZM17.4817 16.7748H15.1489V12.6144C15.1489 11.646 14.8105 10.9884 13.9669 10.9884C13.3225 10.9884 12.9397 11.4336 12.7705 11.862C12.7081 12.0144 12.6925 12.2304 12.6925 12.4452V16.7736H10.3585V11.6616C10.3585 10.7244 10.3285 9.94078 10.2973 9.26638H12.3241L12.4309 10.3092H12.4777C12.7849 9.81958 13.5373 9.09718 14.7961 9.09718C16.3309 9.09718 17.4817 10.1256 17.4817 12.336V16.7748Z" fill="url(#paint0_linear_138_461)"/>
<defs>
<linearGradient id="paint0_linear_138_461" x1="0.261719" y1="2.71796" x2="24.1381" y2="6.51279" gradientUnits="userSpaceOnUse">
<stop stop-color="#267DCC"/>
<stop offset="0.570312" stop-color="#B9C153"/>
<stop offset="1" stop-color="#84BD4D"/>
</linearGradient>
</defs>
</svg>
