<svg width="39" height="40" viewBox="0 0 39 40" fill="none" xmlns="http://www.w3.org/2000/svg">
<path fill-rule="evenodd" clip-rule="evenodd" d="M17.8724 1.98806H2.84537C2.29588 1.98806 1.85042 2.43351 1.85042 2.98301V18.0101C1.85042 18.5596 2.29588 19.005 2.84538 19.005H17.8724C18.4219 19.005 18.8674 18.5596 18.8674 18.0101V2.98301C18.8674 2.43351 18.4219 1.98806 17.8724 1.98806ZM2.84537 0.993103C1.74638 0.993103 0.855469 1.88402 0.855469 2.98301V18.0101C0.855469 19.1091 1.74638 20 2.84538 20H17.8724C18.9714 20 19.8623 19.1091 19.8623 18.0101V2.98301C19.8623 1.88401 18.9714 0.993103 17.8724 0.993103H2.84537Z" fill="#267DCC"/>
<path d="M0.855469 21.9898C0.855469 20.8909 1.74638 19.9999 2.84537 19.9999H17.8724C18.9714 19.9999 19.8623 20.8909 19.8623 21.9898V37.0169C19.8623 38.1159 18.9714 39.0068 17.8724 39.0068H2.84538C1.74638 39.0068 0.855469 38.1159 0.855469 37.0169V21.9898Z" fill="#267DCC"/>
<path d="M19.8623 2.98301C19.8623 1.88402 20.7532 0.993103 21.8522 0.993103H36.8793C37.9783 0.993103 38.8692 1.88401 38.8692 2.98301V18.0101C38.8692 19.1091 37.9783 20 36.8793 20H21.8522C20.7532 20 19.8623 19.1091 19.8623 18.0101V2.98301Z" fill="#267DCC"/>
<path fill-rule="evenodd" clip-rule="evenodd" d="M36.8793 20.995H21.8522C21.3027 20.995 20.8573 21.4405 20.8573 21.99V37.017C20.8573 37.5665 21.3027 38.012 21.8522 38.012H36.8793C37.4288 38.012 37.8742 37.5665 37.8742 37.017V21.99C37.8742 21.4405 37.4288 20.995 36.8793 20.995ZM21.8522 20.0001C20.7532 20.0001 19.8623 20.891 19.8623 21.99V37.017C19.8623 38.116 20.7532 39.0069 21.8522 39.0069H36.8793C37.9783 39.0069 38.8692 38.116 38.8692 37.017V21.99C38.8692 20.891 37.9783 20.0001 36.8793 20.0001H21.8522Z" fill="#267DCC"/>
</svg>
