<svg width="22" height="22" viewBox="0 0 22 22" fill="none" xmlns="http://www.w3.org/2000/svg">
<path fill-rule="evenodd" clip-rule="evenodd" d="M9.99482 0.810893H1.73275C1.43063 0.810893 1.18571 1.05581 1.18571 1.35793V9.62C1.18571 9.92212 1.43063 10.167 1.73275 10.167H9.99482C10.2969 10.167 10.5419 9.92212 10.5419 9.62V1.35793C10.5419 1.05581 10.2969 0.810893 9.99482 0.810893ZM1.73275 0.263855C1.12851 0.263855 0.638672 0.75369 0.638672 1.35793V9.62C0.638672 10.2242 1.12851 10.7141 1.73275 10.7141H9.99482C10.5991 10.7141 11.0889 10.2242 11.0889 9.62V1.35793C11.0889 0.753689 10.5991 0.263855 9.99482 0.263855H1.73275Z" fill="url(#paint0_linear_114_470)"/>
<path d="M0.638672 11.8082C0.638672 11.2039 1.12851 10.7141 1.73275 10.7141H9.99482C10.5991 10.7141 11.0889 11.2039 11.0889 11.8082V20.0702C11.0889 20.6745 10.5991 21.1643 9.99482 21.1643H1.73275C1.12851 21.1643 0.638672 20.6745 0.638672 20.0702V11.8082Z" fill="url(#paint1_linear_114_470)"/>
<path d="M11.0889 1.35793C11.0889 0.75369 11.5787 0.263855 12.1829 0.263855H20.445C21.0493 0.263855 21.5391 0.753689 21.5391 1.35793V9.62C21.5391 10.2242 21.0493 10.7141 20.445 10.7141H12.1829C11.5787 10.7141 11.0889 10.2242 11.0889 9.62V1.35793Z" fill="url(#paint2_linear_114_470)"/>
<path fill-rule="evenodd" clip-rule="evenodd" d="M20.445 11.2611H12.1829C11.8808 11.2611 11.6359 11.506 11.6359 11.8082V20.0702C11.6359 20.3723 11.8808 20.6173 12.1829 20.6173H20.445C20.7471 20.6173 20.9921 20.3723 20.9921 20.0702V11.8082C20.9921 11.506 20.7471 11.2611 20.445 11.2611ZM12.1829 10.7141C11.5787 10.7141 11.0889 11.2039 11.0889 11.8082V20.0702C11.0889 20.6745 11.5787 21.1643 12.1829 21.1643H20.445C21.0493 21.1643 21.5391 20.6745 21.5391 20.0702V11.8082C21.5391 11.2039 21.0493 10.7141 20.445 10.7141H12.1829Z" fill="url(#paint3_linear_114_470)"/>
<defs>
<linearGradient id="paint0_linear_114_470" x1="0.638672" y1="1.27893" x2="11.4682" y2="3.00015" gradientUnits="userSpaceOnUse">
<stop stop-color="#267DCC"/>
<stop offset="0.570312" stop-color="#B9C153"/>
<stop offset="1" stop-color="#84BD4D"/>
</linearGradient>
<linearGradient id="paint1_linear_114_470" x1="0.638672" y1="11.7292" x2="11.4682" y2="13.4504" gradientUnits="userSpaceOnUse">
<stop stop-color="#267DCC"/>
<stop offset="0.570312" stop-color="#B9C153"/>
<stop offset="1" stop-color="#84BD4D"/>
</linearGradient>
<linearGradient id="paint2_linear_114_470" x1="11.0889" y1="1.27893" x2="21.9184" y2="3.00015" gradientUnits="userSpaceOnUse">
<stop stop-color="#267DCC"/>
<stop offset="0.570312" stop-color="#B9C153"/>
<stop offset="1" stop-color="#84BD4D"/>
</linearGradient>
<linearGradient id="paint3_linear_114_470" x1="11.0889" y1="11.7292" x2="21.9184" y2="13.4504" gradientUnits="userSpaceOnUse">
<stop stop-color="#267DCC"/>
<stop offset="0.570312" stop-color="#B9C153"/>
<stop offset="1" stop-color="#84BD4D"/>
</linearGradient>
</defs>
</svg>
