<svg width="25" height="25" viewBox="0 0 25 25" fill="none" xmlns="http://www.w3.org/2000/svg">
<path d="M12.0889 2.71408C17.6117 2.71408 22.0889 7.19123 22.0889 12.7141C22.0889 18.2369 17.6117 22.7141 12.0889 22.7141C6.56602 22.7141 2.08887 18.2369 2.08887 12.7141C2.08887 7.19123 6.56602 2.71408 12.0889 2.71408ZM12.0889 4.21408C7.39445 4.21408 3.58887 8.01966 3.58887 12.7141C3.58887 17.4085 7.39445 21.2141 12.0889 21.2141C16.7833 21.2141 20.5889 17.4085 20.5889 12.7141C20.5889 8.01966 16.7833 4.21408 12.0889 4.21408ZM7.55854 10.6838C7.85143 10.3909 8.32631 10.3909 8.6192 10.6838L12.0889 14.1534L15.5586 10.6838C15.8515 10.3909 16.3263 10.3909 16.6192 10.6838C16.9121 10.9767 16.9121 11.4515 16.6192 11.7444L12.6192 15.7444C12.3263 16.0373 11.8515 16.0373 11.5586 15.7444L7.55854 11.7444C7.26565 11.4515 7.26565 10.9767 7.55854 10.6838Z" fill="white"/>
</svg>
