<svg width="52" height="50" viewBox="0 0 52 50" fill="none" xmlns="http://www.w3.org/2000/svg">
<g clip-path="url(#clip0_2_984)">
<path d="M25.7875 0.0141602C13.0753 0.0141602 13.869 5.5269 13.869 5.5269L13.8832 11.2383H26.0141V12.953H9.06493C9.06493 12.953 0.93042 12.0304 0.93042 24.8569C0.93042 37.6838 8.03042 37.2289 8.03042 37.2289H12.2677V31.2767C12.2677 31.2767 12.0392 24.1767 19.2543 24.1767H31.2861C31.2861 24.1767 38.0459 24.2859 38.0459 17.6436V6.66083C38.0459 6.66083 39.0726 0.0141602 25.7875 0.0141602ZM19.0985 3.85494C19.3851 3.85469 19.669 3.91096 19.9339 4.02054C20.1988 4.13012 20.4395 4.29086 20.6422 4.49356C20.8449 4.69627 21.0056 4.93695 21.1152 5.20184C21.2248 5.46673 21.2811 5.75063 21.2808 6.0373C21.2811 6.32396 21.2248 6.60786 21.1152 6.87275C21.0056 7.13764 20.8449 7.37833 20.6422 7.58103C20.4395 7.78373 20.1988 7.94447 19.9339 8.05405C19.669 8.16363 19.3851 8.21991 19.0985 8.21965C18.8118 8.21991 18.5279 8.16363 18.263 8.05405C17.9981 7.94447 17.7574 7.78373 17.5547 7.58103C17.352 7.37833 17.1913 7.13764 17.0817 6.87275C16.9721 6.60786 16.9158 6.32396 16.9161 6.0373C16.9158 5.75063 16.9721 5.46673 17.0817 5.20184C17.1913 4.93695 17.352 4.69627 17.5547 4.49356C17.7574 4.29086 17.9981 4.13012 18.263 4.02054C18.5279 3.91096 18.8118 3.85469 19.0985 3.85494Z" fill="url(#paint0_linear_2_984)"/>
<path d="M26.1485 49.8285C38.8606 49.8285 38.0669 44.3158 38.0669 44.3158L38.0528 38.6046H25.9216V36.8899H42.8708C42.8708 36.8899 51.0053 37.8124 51.0053 24.9856C51.0053 12.1589 43.9053 12.6138 43.9053 12.6138H39.6681V18.5658C39.6681 18.5658 39.8965 25.6658 32.6814 25.6658H20.6497C20.6497 25.6658 13.8898 25.5566 13.8898 32.1991V43.182C13.8898 43.182 12.8634 49.8285 26.1483 49.8285H26.1485ZM32.8375 45.9881C32.5508 45.9884 32.2669 45.9321 32.002 45.8225C31.7372 45.7129 31.4965 45.5522 31.2938 45.3495C31.0911 45.1468 30.9303 44.9061 30.8207 44.6412C30.7112 44.3763 30.6549 44.0924 30.6551 43.8058C30.6549 43.5191 30.7111 43.2352 30.8207 42.9703C30.9303 42.7053 31.091 42.4646 31.2937 42.2619C31.4964 42.0592 31.7371 41.8984 32.002 41.7888C32.2669 41.6792 32.5508 41.623 32.8375 41.6232C33.1242 41.623 33.4081 41.6792 33.673 41.7888C33.9378 41.8984 34.1785 42.0591 34.3812 42.2618C34.5839 42.4645 34.7447 42.7052 34.8543 42.9701C34.9638 43.235 35.0201 43.5189 35.0199 43.8056C35.0201 44.0922 34.9638 44.3761 34.8543 44.641C34.7447 44.9059 34.5839 45.1466 34.3812 45.3493C34.1785 45.552 33.9378 45.7127 33.673 45.8223C33.4081 45.9319 33.1242 45.9882 32.8375 45.9879V45.9881Z" fill="url(#paint1_linear_2_984)"/>
</g>
<defs>
<linearGradient id="paint0_linear_2_984" x1="5.7426" y1="4.49468" x2="30.5582" y2="29.0627" gradientUnits="userSpaceOnUse">
<stop stop-color="#387EB8"/>
<stop offset="1" stop-color="#366994"/>
</linearGradient>
<linearGradient id="paint1_linear_2_984" x1="20.9744" y1="20.2706" x2="47.6235" y2="45.4629" gradientUnits="userSpaceOnUse">
<stop stop-color="#FFE052"/>
<stop offset="1" stop-color="#FFC331"/>
</linearGradient>
<clipPath id="clip0_2_984">
<rect width="50.1961" height="50" fill="white" transform="translate(0.901978)"/>
</clipPath>
</defs>
</svg>
