<svg width="58" height="50" viewBox="0 0 58 50" fill="none" xmlns="http://www.w3.org/2000/svg">
<path d="M47.0884 16.1894C46.4909 15.9845 45.8884 15.7946 45.2813 15.6199C45.3833 15.2033 45.4772 14.7916 45.5605 14.3872C46.9285 7.74667 46.0342 2.39689 42.9796 0.635488C40.0509 -1.05311 35.2612 0.707637 30.4239 4.91751C29.9472 5.33315 29.481 5.76077 29.0259 6.19996C28.7212 5.90792 28.4111 5.62154 28.0958 5.34097C23.0261 0.839655 17.9445 -1.05749 14.8932 0.708953C11.9671 2.40281 11.1006 7.43198 12.3322 13.7254C12.4548 14.3487 12.5931 14.9688 12.7471 15.5851C12.0278 15.7894 11.3338 16.007 10.6695 16.2386C4.72564 18.3109 0.92981 21.5585 0.92981 24.9272C0.92981 28.4063 5.00481 31.896 11.1956 34.012C11.6975 34.1829 12.2036 34.3412 12.7134 34.4868C12.5478 35.1506 12.4008 35.8188 12.2726 36.4908C11.0985 42.675 12.0153 47.5853 14.9335 49.2684C17.9476 51.0066 23.0063 49.2201 27.932 44.9142C28.3314 44.5642 28.722 44.2042 29.1035 43.8346C29.5964 44.3102 30.1024 44.7719 30.621 45.2193C35.3925 49.325 40.1048 50.9829 43.0202 49.2951C46.0313 47.5519 47.0101 42.2769 45.7395 35.8592C45.6394 35.3564 45.5271 34.8561 45.4028 34.3587C45.7581 34.2535 46.1068 34.1451 46.4467 34.0324C52.8827 31.9002 57.0702 28.4528 57.0702 24.9272C57.0702 21.5462 53.1517 18.2767 47.0884 16.1894ZM45.6925 31.7561C45.3855 31.8576 45.0706 31.9557 44.7495 32.0511C44.039 29.8017 43.0802 27.4101 41.9068 24.9388C43.0265 22.5265 43.9485 20.1653 44.639 17.9307C45.2134 18.0969 45.7706 18.2721 46.3079 18.457C51.5031 20.2456 54.6719 22.8897 54.6719 24.9272C54.6719 27.0973 51.2495 29.9147 45.6925 31.7561ZM43.3868 36.325C43.9487 39.1627 44.0287 41.7285 43.6566 43.7344C43.3224 45.5368 42.65 46.7383 41.8184 47.2197C40.0493 48.2438 36.2658 46.9127 32.1853 43.4013C31.7029 42.9854 31.2322 42.5561 30.7737 42.114C32.3557 40.384 33.9366 38.3728 35.4796 36.139C38.1936 35.8982 40.7577 35.5044 43.0829 34.9669C43.1949 35.4171 43.2962 35.8699 43.3868 36.325ZM20.0693 47.0427C18.3408 47.653 16.964 47.6706 16.1318 47.1908C14.361 46.1695 13.6248 42.2267 14.6289 36.9381C14.7483 36.3132 14.885 35.6917 15.0388 35.0743C17.3384 35.5831 19.8838 35.9489 22.6042 36.1695C24.1577 38.3552 25.7842 40.3642 27.4235 42.1234C27.0751 42.4605 26.7185 42.789 26.3539 43.1085C24.1756 45.0125 21.993 46.3633 20.0693 47.0427ZM11.9715 31.7427C9.23398 30.807 6.97323 29.591 5.42367 28.264C4.03113 27.0717 3.32827 25.8877 3.32827 24.9272C3.32827 22.8829 6.37586 20.2754 11.459 18.5033C12.0759 18.2883 12.7215 18.0855 13.3914 17.8951C14.0941 20.1802 15.0156 22.5695 16.1276 24.9855C15.0011 27.4372 14.0664 29.8647 13.357 32.1767C12.8917 32.0434 12.4297 31.8987 11.9715 31.7427ZM14.686 13.2647C13.6309 7.87277 14.3316 3.80544 16.0949 2.78461C17.973 1.69733 22.1261 3.24755 26.5035 7.13439C26.7889 7.38842 27.0698 7.6476 27.3458 7.91181C25.7147 9.66334 24.1031 11.6574 22.5634 13.8302C19.923 14.075 17.3956 14.4679 15.0719 14.9945C14.9288 14.4213 14.8001 13.8446 14.686 13.2649V13.2647ZM38.9024 19.2445C38.3535 18.2964 37.7843 17.3603 37.1952 16.4368C38.9864 16.6633 40.7026 16.964 42.3142 17.3315C41.8305 18.8824 41.2274 20.5037 40.5175 22.166C39.9987 21.1815 39.4602 20.2075 38.9024 19.2445ZM29.027 9.62584C30.1331 10.8243 31.241 12.1622 32.3307 13.614C30.1202 13.5096 27.9059 13.5092 25.6954 13.6127C26.7862 12.1743 27.9035 10.8381 29.027 9.62584ZM19.0881 19.2609C18.5373 20.2162 18.0089 21.1841 17.5033 22.164C16.805 20.5076 16.2074 18.8789 15.7195 17.3061C17.3213 16.9478 19.0294 16.6548 20.8092 16.4324C20.2135 17.3616 19.6396 18.3046 19.0881 19.2607V19.2609ZM20.8603 33.5925C19.0215 33.3873 17.2877 33.1094 15.6864 32.7607C16.182 31.1598 16.7927 29.4965 17.5061 27.8046C18.0138 28.7852 18.5444 29.7537 19.0976 30.7094C19.6664 31.6919 20.2555 32.6541 20.8603 33.5925ZM29.0932 40.3973C27.9563 39.171 26.8226 37.8142 25.7153 36.355C26.7903 36.3971 27.8862 36.4186 29 36.4186C30.1443 36.4186 31.2754 36.393 32.3888 36.3434C31.2956 37.8289 30.1919 39.1877 29.0932 40.3973ZM40.5401 27.7182C41.2906 29.4287 41.923 31.0833 42.4252 32.6568C40.7976 33.0283 39.0401 33.3274 37.1884 33.5495C37.7817 32.6089 38.3563 31.6565 38.9118 30.693C39.4766 29.7136 40.0195 28.7217 40.5401 27.7182ZM36.8344 29.4947C35.984 30.972 35.0858 32.4212 34.1412 33.8401C32.4302 33.9613 30.7153 34.0215 29 34.0206C27.2528 34.0206 25.5535 33.9662 23.9171 33.8601C22.9478 32.4444 22.0325 30.9927 21.173 29.5079H21.1732C20.3178 28.0309 19.5188 26.522 18.7778 24.9844C19.5169 23.4464 20.3135 21.9368 21.166 20.4587L21.1658 20.459C22.018 18.9805 22.926 17.5349 23.8879 16.1254C25.5574 15.9991 27.2695 15.9333 28.9998 15.9333H29C30.7381 15.9333 32.4524 15.9997 34.1215 16.1269C35.0737 17.5344 35.9759 18.975 36.8265 20.446C37.6819 21.9208 38.489 23.4231 39.2467 24.9504C38.4968 26.4933 37.6922 28.0091 36.8344 29.4947ZM41.7818 2.71312C43.6616 3.79733 44.3927 8.16948 43.2116 13.903C43.1362 14.2688 43.0515 14.6414 42.9594 15.0193C40.63 14.4815 38.1009 14.0818 35.4528 13.8333C33.9103 11.6366 32.3118 9.63944 30.7072 7.91049C31.1278 7.50512 31.5583 7.11026 31.9985 6.72628C36.1432 3.11948 40.0169 1.69536 41.7818 2.71312ZM29 19.914C31.7686 19.914 34.0131 22.1585 34.0131 24.9272C34.0131 27.6958 31.7686 29.9403 29 29.9403C26.2313 29.9403 23.9868 27.6958 23.9868 24.9272C23.9868 22.1585 26.2313 19.914 29 19.914Z" fill="#00D8FF"/>
</svg>
