<svg width="22" height="22" viewBox="0 0 22 22" fill="none" xmlns="http://www.w3.org/2000/svg">
<path d="M10.7817 0.5C4.9833 0.5 0.281738 5.20156 0.281738 11C0.281738 16.7984 4.9833 21.5 10.7817 21.5C16.5802 21.5 21.2817 16.7984 21.2817 11C21.2817 5.20156 16.5802 0.5 10.7817 0.5ZM15.8278 8.41484C15.8349 8.525 15.8349 8.63984 15.8349 8.75234C15.8349 12.193 13.2146 16.1562 8.42627 16.1562C6.94971 16.1562 5.58096 15.7273 4.42783 14.9891C4.63877 15.0125 4.84033 15.0219 5.05596 15.0219C6.27471 15.0219 7.39502 14.6094 8.28799 13.9109C7.14424 13.8875 6.1833 13.1375 5.85518 12.1063C6.25596 12.1648 6.61689 12.1648 7.02939 12.0594C6.44047 11.9397 5.91113 11.6199 5.53131 11.1542C5.15148 10.6885 4.9446 10.1056 4.9458 9.50469V9.47187C5.29033 9.66641 5.6958 9.78594 6.12002 9.80234C5.7634 9.56467 5.47094 9.24268 5.26856 8.86491C5.06619 8.48715 4.96015 8.06528 4.95986 7.63672C4.95986 7.15156 5.08643 6.70859 5.31377 6.32422C5.96745 7.12891 6.78314 7.78705 7.70783 8.25586C8.63252 8.72466 9.64551 8.99364 10.681 9.04531C10.313 7.27578 11.6349 5.84375 13.2239 5.84375C13.9739 5.84375 14.6489 6.15781 15.1247 6.66406C15.713 6.55391 16.2755 6.33359 16.7771 6.03828C16.5825 6.64062 16.1747 7.14922 15.6333 7.47031C16.1583 7.41406 16.6646 7.26875 17.1333 7.06484C16.7794 7.58516 16.3364 8.04688 15.8278 8.41484Z" fill="url(#paint0_linear_138_57)"/>
<defs>
<linearGradient id="paint0_linear_138_57" x1="0.281738" y1="2.53983" x2="22.0441" y2="5.99866" gradientUnits="userSpaceOnUse">
<stop stop-color="#267DCC"/>
<stop offset="0.570312" stop-color="#B9C153"/>
<stop offset="1" stop-color="#84BD4D"/>
</linearGradient>
</defs>
</svg>
