<svg width="51" height="50" viewBox="0 0 51 50" fill="none" xmlns="http://www.w3.org/2000/svg">
<g clip-path="url(#clip0_2_993)">
<path d="M0.80957 25V50H50.8096V0H0.80957V25Z" fill="#007ACC"/>
<path d="M11.8667 25.1661L11.8508 27.2136H18.3586V45.7058H22.9618V27.2136H29.4698V25.2058C29.4698 24.0944 29.4459 23.1659 29.4143 23.1421C29.3905 23.1105 25.4299 23.0944 20.6286 23.1025L11.8903 23.1263L11.8667 25.1659V25.1661ZM41.1547 23.0681C42.4245 23.3855 43.3928 23.9489 44.2817 24.8696C44.742 25.3618 45.4245 26.2585 45.4801 26.4728C45.4957 26.5362 43.3213 27.9966 42.0039 28.8142C41.9563 28.8458 41.7657 28.6396 41.5514 28.322C40.9086 27.3855 40.234 26.9808 39.2022 26.9093C37.6866 26.8062 36.7102 27.5997 36.7182 28.9251C36.7182 29.3142 36.7737 29.5443 36.9325 29.8616C37.2659 30.5523 37.8848 30.965 39.8293 31.8062C43.4086 33.3458 44.9403 34.3616 45.8928 35.8062C46.9563 37.4173 47.1944 39.9888 46.4721 41.9015C45.6786 43.9808 43.7104 45.3935 40.9403 45.8616C40.0832 46.0124 38.0516 45.9886 37.1309 45.822C35.1231 45.465 33.2182 44.4728 32.0436 43.1712C31.5832 42.6634 30.6864 41.3378 30.742 41.2427C30.7659 41.2109 30.9721 41.0839 31.2022 40.9489C31.4245 40.822 32.2659 40.3378 33.0594 39.8777L34.4959 39.0443L34.7975 39.4888C35.2182 40.1314 36.1387 41.0124 36.6944 41.3062C38.2895 42.1474 40.4801 42.0284 41.5594 41.0601C42.0198 40.6396 42.2102 40.203 42.2102 39.5601C42.2102 38.9808 42.1387 38.7269 41.8372 38.2904C41.4485 37.7347 40.6547 37.2665 38.4006 36.2904C35.8213 35.179 34.7102 34.4888 33.6944 33.3935C33.1071 32.7587 32.5514 31.7427 32.3213 30.8935C32.1309 30.187 32.0831 28.4173 32.234 27.703C32.7659 25.2109 34.6467 23.4728 37.361 22.957C38.2418 22.7903 40.2895 22.8538 41.1547 23.0681Z" fill="white"/>
</g>
<defs>
<clipPath id="clip0_2_993">
<rect width="50" height="50" fill="white" transform="translate(0.80957)"/>
</clipPath>
</defs>
</svg>
